# xmcd
#
# Track frame offsets:
#	150
#	16595
#	36877
#	57419
#	77205
#	92432
#	115241
#	133607
#	149308
#	164601
#
# Disc length: 2392 seconds
#
# Revision: 0
# Processed by: cddbd v1.5.2PL0 Copyright (c) Steve Scherf et al.
# Submitted via: audiograbber 1.83.01
#
DISCID=7e09560a
DTITLE=Carl Verheyen - Essential Blues
DYEAR=2017
DGENRE=Blues
TTITLE0=I Take What I Want
TTITLE1=Someday After A While
TTITLE2=Stealing Gasoline
TTITLE3=Dodging The Blues
TTITLE4=Good Morning Judge
TTITLE5=You Don't Love Me
TTITLE6=Stardust Blues
TTITLE7=I May Be Wrong, But I Won't Be Wrong Always/Closing Time Jazz
TTITLE8=Oh Well
TTITLE9=Hard Times
EXTD=
EXTT0=
EXTT1=
EXTT2=
EXTT3=
EXTT4=
EXTT5=
EXTT6=
EXTT7=
EXTT8=
EXTT9=
PLAYORDER=
